<?xml version="1.0" encoding="UTF-8"?>
<svg xmlns="http://www.w3.org/2000/svg" version="1.1" xmlns:xlink="http://www.w3.org/1999/xlink" viewBox="0 0 180 114.97">
  <defs>
    <style>
      .cls-1 {
        fill: url(#Sfumatura_senza_nome_4-2);
      }

      .cls-1, .cls-2, .cls-3, .cls-4, .cls-5, .cls-6, .cls-7, .cls-8, .cls-9, .cls-10, .cls-11, .cls-12, .cls-13, .cls-14, .cls-15, .cls-16, .cls-17, .cls-18, .cls-19, .cls-20, .cls-21, .cls-22, .cls-23, .cls-24, .cls-25, .cls-26, .cls-27, .cls-28, .cls-29, .cls-30, .cls-31, .cls-32, .cls-33, .cls-34, .cls-35, .cls-36, .cls-37, .cls-38, .cls-39, .cls-40, .cls-41, .cls-42, .cls-43, .cls-44, .cls-45, .cls-46, .cls-47 {
        stroke-width: 0px;
      }

      .cls-1, .cls-2, .cls-3, .cls-4, .cls-5, .cls-6, .cls-9, .cls-10, .cls-11, .cls-12, .cls-13, .cls-15, .cls-16, .cls-17, .cls-18, .cls-19, .cls-21, .cls-22, .cls-23, .cls-26, .cls-27, .cls-28, .cls-29, .cls-30, .cls-31, .cls-32, .cls-33, .cls-34, .cls-35, .cls-37, .cls-38, .cls-39, .cls-40, .cls-48, .cls-41, .cls-42, .cls-43, .cls-45, .cls-46 {
        mix-blend-mode: multiply;
      }

      .cls-2 {
        fill: url(#Sfumatura_senza_nome_2-26);
      }

      .cls-3 {
        fill: url(#Sfumatura_senza_nome_2-24);
      }

      .cls-4 {
        fill: url(#Sfumatura_senza_nome_2-4);
      }

      .cls-5 {
        fill: url(#Sfumatura_senza_nome_2-22);
      }

      .cls-6 {
        fill: url(#Sfumatura_senza_nome_2-8);
      }

      .cls-7 {
        fill: url(#Degradado_sin_nombre_7-2);
      }

      .cls-8 {
        fill: url(#Degradado_sin_nombre_13);
      }

      .cls-9 {
        fill: url(#Sfumatura_senza_nome_2-23);
      }

      .cls-10 {
        fill: url(#Sfumatura_senza_nome_2-17);
      }

      .cls-11 {
        fill: url(#Sfumatura_senza_nome_2-11);
      }

      .cls-12 {
        fill: url(#Sfumatura_senza_nome_4-5);
      }

      .cls-13 {
        fill: url(#Sfumatura_senza_nome_2-9);
      }

      .cls-49 {
        isolation: isolate;
      }

      .cls-14 {
        fill: url(#Sfumatura_senza_nome_38-4);
      }

      .cls-15 {
        fill: url(#Sfumatura_senza_nome_2-3);
      }

      .cls-16 {
        fill: url(#Sfumatura_senza_nome_2-6);
      }

      .cls-17 {
        fill: url(#Sfumatura_senza_nome_4-3);
      }

      .cls-18 {
        fill: url(#Sfumatura_senza_nome_2-32);
      }

      .cls-19 {
        fill: url(#Sfumatura_senza_nome_2-13);
      }

      .cls-20 {
        fill: url(#Sfumatura_senza_nome_38);
      }

      .cls-21 {
        fill: url(#Sfumatura_senza_nome_2-27);
      }

      .cls-22 {
        fill: url(#Sfumatura_senza_nome_2-29);
      }

      .cls-23 {
        fill: url(#Sfumatura_senza_nome_2-19);
      }

      .cls-24 {
        fill: url(#Sfumatura_senza_nome_38-3);
      }

      .cls-25 {
        fill: url(#Degradado_sin_nombre_7);
      }

      .cls-26 {
        fill: url(#Sfumatura_senza_nome_2-14);
      }

      .cls-27 {
        fill: url(#Sfumatura_senza_nome_2);
      }

      .cls-28 {
        fill: url(#Sfumatura_senza_nome_2-10);
      }

      .cls-29 {
        fill: url(#Sfumatura_senza_nome_2-7);
      }

      .cls-30 {
        fill: url(#Sfumatura_senza_nome_2-18);
      }

      .cls-31 {
        fill: url(#Sfumatura_senza_nome_2-15);
      }

      .cls-32 {
        fill: url(#Sfumatura_senza_nome_2-25);
      }

      .cls-33 {
        fill: url(#Sfumatura_senza_nome_4);
      }

      .cls-34 {
        fill: url(#Sfumatura_senza_nome_2-12);
      }

      .cls-35 {
        fill: url(#Sfumatura_senza_nome_2-5);
      }

      .cls-36 {
        fill: url(#Sfumatura_senza_nome_2-21);
      }

      .cls-37 {
        fill: url(#Sfumatura_senza_nome_2-16);
      }

      .cls-38 {
        fill: url(#Sfumatura_senza_nome_2-28);
      }

      .cls-39 {
        fill: url(#Sfumatura_senza_nome_2-2);
      }

      .cls-40 {
        fill: url(#Sfumatura_senza_nome_2-30);
      }

      .cls-41 {
        fill: url(#Sfumatura_senza_nome_4-4);
      }

      .cls-42 {
        fill: url(#Sfumatura_senza_nome_2-31);
      }

      .cls-43 {
        fill: url(#Sfumatura_senza_nome_2-20);
      }

      .cls-44 {
        fill: url(#Sfumatura_senza_nome_38-2);
      }

      .cls-45 {
        fill: url(#Sfumatura_senza_nome_2-33);
      }

      .cls-46 {
        fill: url(#Sfumatura_senza_nome_2-34);
      }

      .cls-47 {
        fill: url(#Degradado_sin_nombre_13-2);
      }
    </style>
    <linearGradient id="Degradado_sin_nombre_13" data-name="Degradado sin nombre 13" x1="7.63" y1="93.21" x2="39.61" y2="93.21" gradientUnits="userSpaceOnUse">
      <stop offset="0" stop-color="#eb6029"/>
      <stop offset="1" stop-color="#b63b8c"/>
    </linearGradient>
    <linearGradient id="Degradado_sin_nombre_13-2" data-name="Degradado sin nombre 13" y1="68.09" x2="38.84" y2="68.09" xlink:href="#Degradado_sin_nombre_13"/>
    <linearGradient id="Sfumatura_senza_nome_38" data-name="Sfumatura senza nome 38" x1="87.23" y1="72.18" x2="126.29" y2="72.18" gradientUnits="userSpaceOnUse">
      <stop offset="0" stop-color="#b34864"/>
      <stop offset="1" stop-color="#7f519c"/>
    </linearGradient>
    <linearGradient id="Sfumatura_senza_nome_38-2" data-name="Sfumatura senza nome 38" x1="87.39" y1="98.01" y2="98.01" xlink:href="#Sfumatura_senza_nome_38"/>
    <linearGradient id="Sfumatura_senza_nome_38-3" data-name="Sfumatura senza nome 38" x1="45.02" y1="98.01" x2="83.92" y2="98.01" xlink:href="#Sfumatura_senza_nome_38"/>
    <linearGradient id="Sfumatura_senza_nome_38-4" data-name="Sfumatura senza nome 38" x1="44.86" x2="83.92" xlink:href="#Sfumatura_senza_nome_38"/>
    <linearGradient id="Degradado_sin_nombre_7" data-name="Degradado sin nombre 7" x1="154.81" y1="78.86" x2="172.2" y2="78.86" gradientUnits="userSpaceOnUse">
      <stop offset="0" stop-color="#4a86c5"/>
      <stop offset="1" stop-color="#a960a3"/>
    </linearGradient>
    <linearGradient id="Degradado_sin_nombre_7-2" data-name="Degradado sin nombre 7" x1="127.06" y1="84.89" x2="154.66" y2="84.89" xlink:href="#Degradado_sin_nombre_7"/>
    <linearGradient id="Sfumatura_senza_nome_2" data-name="Sfumatura senza nome 2" x1="60.51" y1="100.52" x2="60.51" y2="45.62" gradientUnits="userSpaceOnUse">
      <stop offset="0" stop-color="#fff" stop-opacity="0"/>
      <stop offset="1" stop-color="#44c1f0"/>
    </linearGradient>
    <linearGradient id="Sfumatura_senza_nome_2-2" data-name="Sfumatura senza nome 2" x1="65.15" y1="100.52" x2="65.15" y2="45.62" xlink:href="#Sfumatura_senza_nome_2"/>
    <linearGradient id="Sfumatura_senza_nome_2-3" data-name="Sfumatura senza nome 2" x1="69.79" y1="100.52" x2="69.79" y2="36.97" xlink:href="#Sfumatura_senza_nome_2"/>
    <linearGradient id="Sfumatura_senza_nome_2-4" data-name="Sfumatura senza nome 2" x1="74.44" y1="100.52" x2="74.44" y2="36.97" xlink:href="#Sfumatura_senza_nome_2"/>
    <linearGradient id="Sfumatura_senza_nome_2-5" data-name="Sfumatura senza nome 2" x1="9477.18" y1="100.52" x2="9477.18" y2="45.62" gradientTransform="translate(-9374.8 146.14) scale(1 -1)" xlink:href="#Sfumatura_senza_nome_2"/>
    <linearGradient id="Sfumatura_senza_nome_2-6" data-name="Sfumatura senza nome 2" x1="9481.82" y1="100.52" x2="9481.82" y2="45.62" gradientTransform="translate(-9384.09 146.14) scale(1 -1)" xlink:href="#Sfumatura_senza_nome_2"/>
    <linearGradient id="Sfumatura_senza_nome_2-7" data-name="Sfumatura senza nome 2" x1="9486.47" y1="100.52" x2="9486.47" y2="36.97" gradientTransform="translate(-9393.38 137.49) scale(1 -1)" xlink:href="#Sfumatura_senza_nome_2"/>
    <linearGradient id="Sfumatura_senza_nome_2-8" data-name="Sfumatura senza nome 2" x1="9491.11" y1="100.52" x2="9491.11" y2="36.97" gradientTransform="translate(-9402.67 137.49) scale(1 -1)" xlink:href="#Sfumatura_senza_nome_2"/>
    <linearGradient id="Sfumatura_senza_nome_2-9" data-name="Sfumatura senza nome 2" x1="79.08" y1="100.52" x2="79.08" y2="26" xlink:href="#Sfumatura_senza_nome_2"/>
    <linearGradient id="Sfumatura_senza_nome_2-10" data-name="Sfumatura senza nome 2" x1="83.73" y1="100.52" x2="83.73" y2="26" xlink:href="#Sfumatura_senza_nome_2"/>
    <linearGradient id="Sfumatura_senza_nome_4" data-name="Sfumatura senza nome 4" x1="-5247.3" y1="3165.95" x2="-5250.28" y2="3165.95" gradientTransform="translate(5281.42 -3123.84)" gradientUnits="userSpaceOnUse">
      <stop offset="0" stop-color="#fff" stop-opacity="0"/>
      <stop offset=".05" stop-color="rgba(229, 246, 252, .14)" stop-opacity=".14"/>
      <stop offset=".15" stop-color="rgba(192, 234, 249, .34)" stop-opacity=".34"/>
      <stop offset=".24" stop-color="rgba(158, 223, 247, .51)" stop-opacity=".51"/>
      <stop offset=".34" stop-color="rgba(130, 213, 245, .66)" stop-opacity=".66"/>
      <stop offset=".45" stop-color="rgba(107, 206, 243, .79)" stop-opacity=".79"/>
      <stop offset=".56" stop-color="rgba(90, 200, 241, .88)" stop-opacity=".88"/>
      <stop offset=".68" stop-color="rgba(77, 196, 240, .95)" stop-opacity=".95"/>
      <stop offset=".82" stop-color="rgba(70, 193, 240, .99)" stop-opacity=".99"/>
      <stop offset="1" stop-color="#44c1f0"/>
    </linearGradient>
    <linearGradient id="Sfumatura_senza_nome_4-2" data-name="Sfumatura senza nome 4" x1="-5252.24" x2="-5255.22" gradientTransform="translate(5286.36 -3128.77)" xlink:href="#Sfumatura_senza_nome_4"/>
    <linearGradient id="Sfumatura_senza_nome_2-11" data-name="Sfumatura senza nome 2" x1="46.24" y1="100.52" x2="46.24" y2="44.38" xlink:href="#Sfumatura_senza_nome_2"/>
    <linearGradient id="Sfumatura_senza_nome_2-12" data-name="Sfumatura senza nome 2" x1="41.59" y1="100.52" x2="41.59" y2="44.38" xlink:href="#Sfumatura_senza_nome_2"/>
    <linearGradient id="Sfumatura_senza_nome_2-13" data-name="Sfumatura senza nome 2" x1="-5229.54" y1="3152.44" x2="-5232.52" y2="3152.44" gradientTransform="translate(5277.16 -3092.56)" xlink:href="#Sfumatura_senza_nome_2"/>
    <linearGradient id="Sfumatura_senza_nome_2-14" data-name="Sfumatura senza nome 2" x1="-5225.72" y1="3152.44" x2="-5228.7" y2="3152.44" gradientTransform="translate(5273.35 -3088.75)" xlink:href="#Sfumatura_senza_nome_2"/>
    <linearGradient id="Sfumatura_senza_nome_2-15" data-name="Sfumatura senza nome 2" x1="-5229.54" y1="3179.65" x2="-5232.52" y2="3179.65" gradientTransform="translate(5249.95 -3119.77)" xlink:href="#Sfumatura_senza_nome_2"/>
    <linearGradient id="Sfumatura_senza_nome_2-16" data-name="Sfumatura senza nome 2" x1="-5225.72" y1="3179.65" x2="-5228.7" y2="3179.65" gradientTransform="translate(5246.14 -3115.96)" xlink:href="#Sfumatura_senza_nome_2"/>
    <linearGradient id="Sfumatura_senza_nome_2-17" data-name="Sfumatura senza nome 2" x1="50.89" y1="100.52" x2="50.89" y2="44.38" xlink:href="#Sfumatura_senza_nome_2"/>
    <linearGradient id="Sfumatura_senza_nome_2-18" data-name="Sfumatura senza nome 2" x1="18.81" y1="100.52" x2="18.81" y2="44.38" xlink:href="#Sfumatura_senza_nome_2"/>
    <linearGradient id="Sfumatura_senza_nome_2-19" data-name="Sfumatura senza nome 2" x1="14.16" y1="100.52" x2="14.16" y2="44.38" xlink:href="#Sfumatura_senza_nome_2"/>
    <linearGradient id="Sfumatura_senza_nome_2-20" data-name="Sfumatura senza nome 2" x1="23.47" y1="100.52" x2="23.47" y2="44.38" xlink:href="#Sfumatura_senza_nome_2"/>
    <linearGradient id="Sfumatura_senza_nome_2-21" data-name="Sfumatura senza nome 2" x1="33.07" y1="56.01" x2="33.07" y2="44.37" xlink:href="#Sfumatura_senza_nome_2"/>
    <linearGradient id="Sfumatura_senza_nome_2-22" data-name="Sfumatura senza nome 2" x1="112.83" y1="100.52" x2="112.83" y2="45.62" xlink:href="#Sfumatura_senza_nome_2"/>
    <linearGradient id="Sfumatura_senza_nome_2-23" data-name="Sfumatura senza nome 2" x1="125.51" y1="100.52" x2="125.51" y2="45.62" xlink:href="#Sfumatura_senza_nome_2"/>
    <linearGradient id="Sfumatura_senza_nome_2-24" data-name="Sfumatura senza nome 2" x1="119.34" y1="42.05" x2="119.34" y2="13.1" xlink:href="#Sfumatura_senza_nome_2"/>
    <linearGradient id="Sfumatura_senza_nome_2-25" data-name="Sfumatura senza nome 2" x1="117.06" y1="100.5" x2="117.06" y2="31.2" xlink:href="#Sfumatura_senza_nome_2"/>
    <linearGradient id="Sfumatura_senza_nome_2-26" data-name="Sfumatura senza nome 2" x1="121.28" y1="100.5" x2="121.28" y2="31.2" xlink:href="#Sfumatura_senza_nome_2"/>
    <linearGradient id="Sfumatura_senza_nome_4-3" data-name="Sfumatura senza nome 4" x1="-5242.37" y1="3079.48" x2="-5245.35" y2="3079.48" gradientTransform="translate(5362.96 -3032.44)" xlink:href="#Sfumatura_senza_nome_4"/>
    <linearGradient id="Sfumatura_senza_nome_4-4" data-name="Sfumatura senza nome 4" x1="-5256.72" y1="3079.48" x2="-5259.7" y2="3079.48" gradientTransform="translate(5377.31 -3046.78)" xlink:href="#Sfumatura_senza_nome_4"/>
    <linearGradient id="Sfumatura_senza_nome_4-5" data-name="Sfumatura senza nome 4" x1="-5271.19" y1="3079.3" x2="-5274.17" y2="3079.3" gradientTransform="translate(5391.95 -3061.08)" xlink:href="#Sfumatura_senza_nome_4"/>
    <linearGradient id="Sfumatura_senza_nome_2-27" data-name="Sfumatura senza nome 2" x1="135.82" x2="135.82" y2="35.8" xlink:href="#Sfumatura_senza_nome_2"/>
    <linearGradient id="Sfumatura_senza_nome_2-28" data-name="Sfumatura senza nome 2" x1="140.14" x2="140.14" y2="28.14" xlink:href="#Sfumatura_senza_nome_2"/>
    <linearGradient id="Sfumatura_senza_nome_2-29" data-name="Sfumatura senza nome 2" x1="144.45" x2="144.45" y2="24.8" xlink:href="#Sfumatura_senza_nome_2"/>
    <linearGradient id="Sfumatura_senza_nome_2-30" data-name="Sfumatura senza nome 2" x1="148.76" x2="148.76" y2="22.32" xlink:href="#Sfumatura_senza_nome_2"/>
    <linearGradient id="Sfumatura_senza_nome_2-31" data-name="Sfumatura senza nome 2" x1="-710.2" y1="100.52" x2="-710.2" y2="34.41" gradientTransform="translate(876.21 134.93) scale(1 -1)" xlink:href="#Sfumatura_senza_nome_2"/>
    <linearGradient id="Sfumatura_senza_nome_2-32" data-name="Sfumatura senza nome 2" x1="-705.88" y1="100.52" x2="-705.88" y2="32.69" gradientTransform="translate(867.59 133.21) scale(1 -1)" xlink:href="#Sfumatura_senza_nome_2"/>
    <linearGradient id="Sfumatura_senza_nome_2-33" data-name="Sfumatura senza nome 2" x1="-701.57" y1="100.52" x2="-701.57" y2="31.83" gradientTransform="translate(858.96 132.35) scale(1 -1)" xlink:href="#Sfumatura_senza_nome_2"/>
    <linearGradient id="Sfumatura_senza_nome_2-34" data-name="Sfumatura senza nome 2" x1="153.08" x2="153.08" y2="6.27" xlink:href="#Sfumatura_senza_nome_2"/>
  </defs>
  <g class="cls-49">
    <g id="Livello_1" data-name="Livello 1">
      <g>
        <g>
          <g>
            <polygon class="cls-8" points="17.13 97.88 17.13 88.32 36.31 88.32 36.31 80.88 17.13 80.88 17.13 80.87 7.63 80.87 7.63 105.55 39.61 105.55 39.61 97.88 17.13 97.88"/>
            <polygon class="cls-47" points="17.13 71.94 17.13 71.91 38.84 71.91 38.84 64.24 7.63 64.24 7.63 71.94 17.13 71.94"/>
          </g>
          <g>
            <path class="cls-20" d="M97.09,80.83c.28-.98.65-1.91,1.14-2.78,1.12-2.01,2.69-3.57,4.69-4.69,2.01-1.12,4.29-1.68,6.85-1.68,4.13,0,7.59,1.61,10.38,4.84l6.14-5.67c-1.97-2.36-4.4-4.17-7.29-5.43-2.89-1.26-6.13-1.89-9.71-1.89-4.25,0-8.07.91-11.48,2.74-3.4,1.83-6.08,4.37-8.02,7.61-1.28,2.13-2.13,4.45-2.57,6.94h9.87Z"/>
            <path class="cls-44" d="M109.77,98.11c-2.56,0-4.84-.56-6.85-1.68-2.01-1.12-3.57-2.68-4.69-4.69-.35-.63-.64-1.29-.88-1.98h-9.96c.47,2.19,1.27,4.24,2.41,6.14,1.95,3.25,4.62,5.78,8.02,7.61s7.21,2.74,11.42,2.74c3.58,0,6.82-.63,9.74-1.89,2.91-1.26,5.35-3.09,7.32-5.49l-6.14-5.66c-2.79,3.27-6.25,4.9-10.38,4.9Z"/>
          </g>
          <g>
            <path class="cls-24" d="M67.4,98.11c-2.56,0-4.84-.56-6.85-1.68-2.01-1.12-3.57-2.68-4.69-4.69-.35-.63-.64-1.29-.88-1.98h-9.96c.47,2.19,1.27,4.24,2.41,6.14,1.95,3.25,4.62,5.78,8.02,7.61s7.21,2.74,11.42,2.74c3.58,0,6.82-.63,9.74-1.89,2.91-1.26,5.35-3.09,7.32-5.49l-6.14-5.66c-2.79,3.27-6.25,4.9-10.38,4.9Z"/>
            <path class="cls-14" d="M54.73,80.83c.28-.98.65-1.91,1.14-2.78,1.12-2.01,2.69-3.57,4.69-4.69,2.01-1.12,4.29-1.68,6.85-1.68,4.13,0,7.59,1.61,10.38,4.84l6.14-5.67c-1.97-2.36-4.4-4.17-7.29-5.43-2.89-1.26-6.13-1.89-9.71-1.89-4.25,0-8.07.91-11.48,2.74-3.4,1.83-6.08,4.37-8.02,7.61-1.28,2.13-2.13,4.45-2.57,6.94h9.87Z"/>
          </g>
          <g>
            <polygon class="cls-25" points="159.54 93.49 172.2 64.24 162.7 64.24 154.81 82.5 159.54 93.49"/>
            <polygon class="cls-7" points="137.23 64.24 127.06 64.24 144.88 105.55 154.32 105.55 154.66 104.75 137.23 64.24"/>
          </g>
        </g>
        <g>
          <g class="cls-48">
            <rect class="cls-27" x="58.82" y="45.62" width="3.37" height="54.9" rx="1.58" ry="1.58"/>
            <rect class="cls-39" x="63.47" y="45.62" width="3.37" height="54.9" rx="1.58" ry="1.58"/>
            <rect class="cls-15" x="68.11" y="36.97" width="3.37" height="63.55" rx="1.58" ry="1.58"/>
            <rect class="cls-4" x="72.75" y="36.97" width="3.37" height="63.55" rx="1.58" ry="1.58"/>
            <rect class="cls-35" x="100.69" y="45.62" width="3.37" height="54.9" rx="1.58" ry="1.58" transform="translate(204.75 146.14) rotate(180)"/>
            <rect class="cls-16" x="96.05" y="45.62" width="3.37" height="54.9" rx="1.58" ry="1.58" transform="translate(195.46 146.14) rotate(180)"/>
            <rect class="cls-29" x="91.4" y="36.97" width="3.37" height="63.55" rx="1.58" ry="1.58" transform="translate(186.17 137.49) rotate(180)"/>
            <rect class="cls-6" x="86.76" y="36.97" width="3.37" height="63.55" rx="1.58" ry="1.58" transform="translate(176.89 137.49) rotate(180)"/>
            <rect class="cls-13" x="77.4" y="26" width="3.37" height="74.52" rx="1.58" ry="1.58"/>
            <rect class="cls-28" x="82.04" y="26" width="3.37" height="74.52" rx="1.58" ry="1.58"/>
          </g>
          <g class="cls-48">
            <rect class="cls-33" x="31.14" y="20.86" width="2.98" height="42.5" rx="1.49" ry="1.49" transform="translate(74.74 9.49) rotate(90)"/>
            <rect class="cls-1" x="31.14" y="15.92" width="2.98" height="42.5" rx="1.49" ry="1.49" transform="translate(69.8 4.55) rotate(90)"/>
            <rect class="cls-11" x="44.55" y="44.38" width="3.37" height="56.14" rx="1.58" ry="1.58"/>
            <rect class="cls-34" x="39.91" y="44.38" width="3.37" height="56.14" rx="1.58" ry="1.58"/>
            <rect class="cls-19" x="44.64" y="51.31" width="2.98" height="17.13" rx="1.49" ry="1.49" transform="translate(106.01 13.75) rotate(90)"/>
            <rect class="cls-26" x="44.64" y="55.13" width="2.98" height="17.13" rx="1.49" ry="1.49" transform="translate(109.83 17.56) rotate(90)"/>
            <rect class="cls-31" x="17.44" y="51.31" width="2.98" height="17.13" rx="1.49" ry="1.49" transform="translate(78.81 40.95) rotate(90)"/>
            <rect class="cls-37" x="17.44" y="55.13" width="2.98" height="17.13" rx="1.49" ry="1.49" transform="translate(82.62 44.77) rotate(90)"/>
            <rect class="cls-10" x="49.21" y="44.38" width="3.37" height="56.14" rx="1.58" ry="1.58"/>
            <rect class="cls-30" x="17.12" y="44.38" width="3.37" height="56.14" rx="1.58" ry="1.58"/>
            <rect class="cls-23" x="12.48" y="44.38" width="3.37" height="56.14" rx="1.58" ry="1.58"/>
            <rect class="cls-43" x="21.78" y="44.38" width="3.37" height="56.14" rx="1.58" ry="1.58"/>
            <path class="cls-36" d="M42.15,56.01c-1,0-1.8-.81-1.8-1.8,0-3.43-3.27-6.23-7.28-6.23s-7.28,2.79-7.28,6.23c0,1-.81,1.8-1.8,1.8s-1.8-.81-1.8-1.8c0-5.42,4.88-9.84,10.89-9.84s10.89,4.41,10.89,9.84c0,1-.81,1.8-1.8,1.8Z"/>
          </g>
          <g class="cls-48">
            <rect class="cls-5" x="111.15" y="45.62" width="3.37" height="54.9" rx="1.58" ry="1.58"/>
            <rect class="cls-9" x="123.82" y="45.62" width="3.37" height="54.9" rx="1.58" ry="1.58"/>
            <rect class="cls-3" x="117.65" y="13.1" width="3.37" height="28.94" rx="1.4" ry="1.4"/>
            <rect class="cls-32" x="115.37" y="31.2" width="3.37" height="69.3" rx="1.58" ry="1.58"/>
            <rect class="cls-2" x="119.6" y="31.2" width="3.37" height="69.3" rx="1.58" ry="1.58"/>
            <rect class="cls-17" x="117.61" y="36.13" width="2.98" height="21.83" rx="1.49" ry="1.49" transform="translate(166.14 -72.06) rotate(90)"/>
            <rect class="cls-41" x="117.61" y="26.45" width="2.98" height="12.5" rx="1.49" ry="1.49" transform="translate(151.8 -86.4) rotate(90)"/>
            <rect class="cls-12" x="117.78" y="14.43" width="2.98" height="7.59" rx="1.49" ry="1.49" transform="translate(137.5 -101.05) rotate(90)"/>
          </g>
          <g class="cls-48">
            <rect class="cls-21" x="134.14" y="35.8" width="3.37" height="64.72" rx="1.58" ry="1.58"/>
            <rect class="cls-38" x="138.45" y="28.14" width="3.37" height="72.38" rx="1.58" ry="1.58"/>
            <rect class="cls-22" x="142.77" y="24.8" width="3.37" height="75.71" rx="1.58" ry="1.58"/>
            <rect class="cls-40" x="147.08" y="22.32" width="3.37" height="78.2" rx="1.58" ry="1.58"/>
            <rect class="cls-42" x="164.33" y="34.41" width="3.37" height="66.11" rx="1.58" ry="1.58" transform="translate(332.03 134.93) rotate(-180)"/>
            <rect class="cls-18" x="160.02" y="32.69" width="3.37" height="67.83" rx="1.58" ry="1.58" transform="translate(323.41 133.21) rotate(-180)"/>
            <rect class="cls-45" x="155.71" y="31.83" width="3.37" height="68.69" rx="1.58" ry="1.58" transform="translate(314.78 132.35) rotate(-180)"/>
            <rect class="cls-46" x="151.39" y="6.27" width="3.37" height="94.25" rx="1.58" ry="1.58"/>
          </g>
        </g>
      </g>
    </g>
  </g>
</svg>